<svg id="visual" viewBox="0 0 2560 540" width="2560" height="540" xmlns="http://www.w3.org/2000/svg" xmlns:xlink="http://www.w3.org/1999/xlink" version="1.1"><rect x="0" y="0" width="2560" height="540" fill="#001220"></rect><path d="M0 287L61 288.7C122 290.3 244 293.7 365.8 295.5C487.7 297.3 609.3 297.7 731.2 295.8C853 294 975 290 1097 302.2C1219 314.3 1341 342.7 1463 341.3C1585 340 1707 309 1828.8 301.5C1950.7 294 2072.3 310 2194.2 321C2316 332 2438 338 2499 341L2560 344L2560 541L2499 541C2438 541 2316 541 2194.2 541C2072.3 541 1950.7 541 1828.8 541C1707 541 1585 541 1463 541C1341 541 1219 541 1097 541C975 541 853 541 731.2 541C609.3 541 487.7 541 365.8 541C244 541 122 541 61 541L0 541Z" fill="#6366f1"></path><path d="M0 347L61 356C122 365 244 383 365.8 389.7C487.7 396.3 609.3 391.7 731.2 390.5C853 389.3 975 391.7 1097 387.8C1219 384 1341 374 1463 376.8C1585 379.7 1707 395.3 1828.8 394C1950.7 392.7 2072.3 374.3 2194.2 367.2C2316 360 2438 364 2499 366L2560 368L2560 541L2499 541C2438 541 2316 541 2194.2 541C2072.3 541 1950.7 541 1828.8 541C1707 541 1585 541 1463 541C1341 541 1219 541 1097 541C975 541 853 541 731.2 541C609.3 541 487.7 541 365.8 541C244 541 122 541 61 541L0 541Z" fill="#008efc"></path><path d="M0 380L61 384C122 388 244 396 365.8 400.5C487.7 405 609.3 406 731.2 400.8C853 395.7 975 384.3 1097 378.8C1219 373.3 1341 373.7 1463 378.3C1585 383 1707 392 1828.8 403.3C1950.7 414.7 2072.3 428.3 2194.2 428C2316 427.7 2438 413.3 2499 406.2L2560 399L2560 541L2499 541C2438 541 2316 541 2194.2 541C2072.3 541 1950.7 541 1828.8 541C1707 541 1585 541 1463 541C1341 541 1219 541 1097 541C975 541 853 541 731.2 541C609.3 541 487.7 541 365.8 541C244 541 122 541 61 541L0 541Z" fill="#00acf4"></path><path d="M0 456L61 455.5C122 455 244 454 365.8 453C487.7 452 609.3 451 731.2 444C853 437 975 424 1097 420C1219 416 1341 421 1463 421C1585 421 1707 416 1828.8 420.7C1950.7 425.3 2072.3 439.7 2194.2 445C2316 450.3 2438 446.7 2499 444.8L2560 443L2560 541L2499 541C2438 541 2316 541 2194.2 541C2072.3 541 1950.7 541 1828.8 541C1707 541 1585 541 1463 541C1341 541 1219 541 1097 541C975 541 853 541 731.2 541C609.3 541 487.7 541 365.8 541C244 541 122 541 61 541L0 541Z" fill="#00c2da"></path><path d="M0 502L61 496.2C122 490.3 244 478.7 365.8 479.5C487.7 480.3 609.3 493.7 731.2 494C853 494.3 975 481.7 1097 482.5C1219 483.3 1341 497.7 1463 497.7C1585 497.7 1707 483.3 1828.8 481.8C1950.7 480.3 2072.3 491.7 2194.2 494.8C2316 498 2438 493 2499 490.5L2560 488L2560 541L2499 541C2438 541 2316 541 2194.2 541C2072.3 541 1950.7 541 1828.8 541C1707 541 1585 541 1463 541C1341 541 1219 541 1097 541C975 541 853 541 731.2 541C609.3 541 487.7 541 365.8 541C244 541 122 541 61 541L0 541Z" fill="#00cc99"></path></svg>